<?xml version="1.0" encoding="UTF-8" standalone="no"?>
<svg
   width="3236.2"
   height="693.97"
   viewBox="0 0 3236.2 693.97"
   class="w-8 h-8"
   version="1.1"
   id="svg2"
   sodipodi:docname="halbelf.svg"
   inkscape:version="1.3.2 (091e20e, 2023-11-25)"
   xmlns:inkscape="http://www.inkscape.org/namespaces/inkscape"
   xmlns:sodipodi="http://sodipodi.sourceforge.net/DTD/sodipodi-0.dtd"
   xmlns="http://www.w3.org/2000/svg"
   xmlns:svg="http://www.w3.org/2000/svg">
  <defs
     id="defs2" />
  <sodipodi:namedview
     id="namedview2"
     pagecolor="#ffffff"
     bordercolor="#000000"
     borderopacity="0.25"
     inkscape:showpageshadow="2"
     inkscape:pageopacity="0.0"
     inkscape:pagecheckerboard="0"
     inkscape:deskcolor="#d1d1d1"
     inkscape:zoom="0.23952"
     inkscape:cx="910.15"
     inkscape:cy="283.9"
     inkscape:window-width="2560"
     inkscape:window-height="1293"
     inkscape:window-x="0"
     inkscape:window-y="25"
     inkscape:window-maximized="1"
     inkscape:current-layer="svg2" />
  <path
     fill-rule="evenodd"
     clip-rule="evenodd"
     d="m 245.47,650.25 c -5.52,0 -10,-4.48 -10,-10 V 445.9 c 0,-9.15 -11.27,-13.49 -17.41,-6.71 L 2.6068,677.26 c -5.82,6.43 -1.26,16.71 7.4102,16.71 h 225.453 57.89 c 5.52,0 10,-4.48 10,-10 v -23.72 c 0,-5.53 -4.48,-10 -10,-10 z"
     fill="currentColor"
     id="path1"
     style="fill:#60b474;fill-opacity:1" />
  <path
     fill-rule="evenodd"
     clip-rule="evenodd"
     d="m 403.61,235.25 c -1.65,1.84 -2.57,4.22 -2.57,6.69 v 398.31 c 0,5.52 -4.47,10 -10,10 h -47.68 c -5.53,0 -10,4.47 -10,10 v 23.72 c 0,5.52 4.47,10 10,10 h 344.17 c 5.52,0 10,-4.48 10,-10 v -23.72 c 0,-5.53 -4.48,-10 -10,-10 h -47.69 c -5.52,0 -10,-4.48 -10,-10 V 10.02 c 0,-9.16391 -11.3,-13.5011 -17.43,-6.6911 z"
     fill="currentColor"
     id="path2"
     style="fill:#60b474;fill-opacity:1" />
  <text
     xml:space="preserve"
     style="font-weight:bold;font-size:607.44px;font-family:sans-serif;-inkscape-font-specification:'sans-serif, Bold';fill:#60b474;fill-opacity:1;stroke:#ffa500;stroke-width:14.7214;stroke-linejoin:round;stroke-opacity:0"
     x="804.72"
     y="574.78"
     id="text2"><tspan
       sodipodi:role="line"
       id="tspan2"
       x="804.72"
       y="574.78"
       style="fill:#60b474;fill-opacity:1;stroke-width:14.7214">Halbelf</tspan></text>
</svg>
