<svg id="Layer_1" data-name="Layer 1" xmlns="http://www.w3.org/2000/svg" viewBox="0 0 123.72 49.93">
  <defs>
    <style>
      .hawe-1 {
        fill: currentColor;
      }

      .hawe-2 {
        fill: #c6192e;
      }
    </style>
  </defs>
  <title>full hd_svg_logo</title>
  <path class="hawe-1"
    d="M51,132.78V145H38.62V134.44c-.82.68-1.64,1.4-2.47,2.16l-.57.55c-.55.53-1.1,1.08-1.65,1.64l-.31.33-.51.54v21.06a63.72,63.72,0,0,0,5.51-4.12v-6.76H51v14h5.45V132.78ZM33.11,163.83h5.51V157.6a62.4,62.4,0,0,1-5.51,4.05Z"
    transform="translate(-13.14 -125.03)" />
  <path class="hawe-1"
    d="M74.14,161.57a5.13,5.13,0,0,1-2.51,1.93,9.4,9.4,0,0,1-3.74.76,8.43,8.43,0,0,1-5.77-1.84,6.52,6.52,0,0,1-2.1-5.2,7.29,7.29,0,0,1,3-6.17q3-2.22,8.41-2.22a9.32,9.32,0,0,1,2.2.31q0-4-5.07-4a11.28,11.28,0,0,0-5,1L62.38,142a14.81,14.81,0,0,1,6.5-1.31c3.47,0,6,.78,7.61,2.36s2.42,4.56,2.42,9v4.85c0,3,.61,4.93,1.82,5.7A2.76,2.76,0,0,1,79.27,164a5.79,5.79,0,0,1-1.84.27,3,3,0,0,1-2.06-.85A4.33,4.33,0,0,1,74.14,161.57Zm-.51-8.42a11.65,11.65,0,0,0-2-.28c-4.19,0-6.28,1.38-6.28,4.12q0,3,3.54,3,4.77,0,4.77-4.77Z"
    transform="translate(-13.14 -125.03)" />
  <path class="hawe-1"
    d="M106.09,164.26h-2.27L97,144.67l-6.59,19.59H88.18L78,132.78h5.75l5.83,18.74,6.29-18.74h2.42l6.32,18.74,5.8-18.74h5.75Z"
    transform="translate(-13.14 -125.03)" />
  <path class="hawe-1"
    d="M136.42,154.1H120.2a5.74,5.74,0,0,0,1.87,4.22,6.71,6.71,0,0,0,4.62,1.51,7.47,7.47,0,0,0,5.51-1.89l2.05,4.05c-1.86,1.51-4.65,2.27-8.35,2.27a11.07,11.07,0,0,1-8.21-3c-2-2-3-4.86-3-8.49A11.79,11.79,0,0,1,118,144a11.66,11.66,0,0,1,15.89-.38,10.08,10.08,0,0,1,3,7.51A15.13,15.13,0,0,1,136.42,154.1Zm-16-4h11.15c-.37-3.32-2.2-5-5.51-5C123,145.14,121.13,146.8,120.39,150.12Z"
    transform="translate(-13.14 -125.03)" />
  <path class="hawe-2"
    d="M54.4,130.45a3.72,3.72,0,0,0-1.13-1.87c-3.65-3.18-13.54,2.23-22.1,12.07s-13,21.1-8.88,23.57c2.55,1.51,6.38.26,10.82-2.57a62.4,62.4,0,0,0,5.51-4.05c1.84-1.49,3.73-3.15,5.63-4.91a70.22,70.22,0,0,1-5.63,6.21,49.16,49.16,0,0,1-5.51,4.71c-3,2.14-6.16,3.73-9.07,3.73-3.11,0-5-1.06-5.95-3.08a6.8,6.8,0,0,1-.67-3.16c0-.14,0-.28,0-.43a4.94,4.94,0,0,1,.08-1c.65-5.33,4.58-12.94,10.83-20.13,9.32-10.72,20.27-16.46,24.45-12.83A5.24,5.24,0,0,1,54.4,130.45Z"
    transform="translate(-13.14 -125.03)" />
  <path class="hawe-2"
    d="M21.93,136.65a77.07,77.07,0,0,1,5.37-5.92,72.1,72.1,0,0,1,6-5.38,29.36,29.36,0,0,0-6.94,4.36,41.58,41.58,0,0,0-5.8,5.84,40.85,40.85,0,0,0-4.6,6.83,27.93,27.93,0,0,0-2.84,7.69,61.57,61.57,0,0,1,4-7A74.76,74.76,0,0,1,21.93,136.65Z"
    transform="translate(-13.14 -125.03)" />
  <path class="hawe-2"
    d="M42.61,125c-4.83-.16-12.41,4.62-18.88,12.33-7,8.36-10.4,17.42-8.51,21.86a23,23,0,0,1,1.22-4.87A53.94,53.94,0,0,1,26.59,138C31.79,132,37.54,127.4,42.61,125Z"
    transform="translate(-13.14 -125.03)" />
  <!-- <path class="hawe-2"
    d="M34.57,173.4c-.83,0-1.46-.45-1.46-1.18h.72a.66.66,0,0,0,.74.61c.47,0,.74-.26.74-.61,0-1-2.19-.35-2.19-1.86,0-.72.58-1.17,1.42-1.17a1.25,1.25,0,0,1,1.4,1.11h-.75a.64.64,0,0,0-.69-.54c-.39,0-.69.18-.69.57,0,.93,2.18.35,2.18,1.86A1.28,1.28,0,0,1,34.57,173.4Z"
    transform="translate(-13.14 -125.03)" />
  <path class="hawe-2"
    d="M37.07,170.64h-.38v-.55h.38v-.81h.68v.81h.8v.55h-.8v1.81c0,.24.1.34.38.34h.42v.57H38c-.58,0-.94-.25-.94-.91Z"
    transform="translate(-13.14 -125.03)" />
  <path class="hawe-2"
    d="M40.75,173.41a1.59,1.59,0,0,1-1.63-1.69A1.57,1.57,0,0,1,40.75,170a1.52,1.52,0,0,1,1.59,1.6c0,.12,0,.22,0,.34h-2.5a.9.9,0,0,0,.93.86.78.78,0,0,0,.77-.46h.73A1.49,1.49,0,0,1,40.75,173.41Zm-.92-2h1.8a.84.84,0,0,0-.91-.82A.88.88,0,0,0,39.83,171.43Z"
    transform="translate(-13.14 -125.03)" />
  <path class="hawe-2"
    d="M46.14,173.36h-.68V173a1.2,1.2,0,0,1-1,.44A1.28,1.28,0,0,1,43.15,172v-1.92h.67v1.82a.79.79,0,0,0,.82.91c.5,0,.82-.31.82-.91v-1.82h.68Z"
    transform="translate(-13.14 -125.03)" />
  <path class="hawe-2"
    d="M48.61,173.41A1.58,1.58,0,0,1,47,171.72,1.56,1.56,0,0,1,48.61,170a1.51,1.51,0,0,1,1.58,1.6,1.94,1.94,0,0,1,0,.34H47.68a.89.89,0,0,0,.93.86.8.8,0,0,0,.77-.46h.73A1.5,1.5,0,0,1,48.61,173.41Zm-.93-2h1.81a.85.85,0,0,0-.91-.82A.88.88,0,0,0,47.68,171.43Z"
    transform="translate(-13.14 -125.03)" />
  <path class="hawe-2" d="M51.71,173.36H51v-3.27h.67v.48a1.06,1.06,0,0,1,1-.53v.7h-.17c-.5,0-.81.2-.81.9Z"
    transform="translate(-13.14 -125.03)" />
  <path class="hawe-2" d="M53.56,170.93H56v.57H53.56Z" transform="translate(-13.14 -125.03)" />
  <path class="hawe-2"
    d="M61.81,173.36h-.68V173a1.21,1.21,0,0,1-1,.44A1.27,1.27,0,0,1,58.82,172v-1.92h.67v1.82c0,.6.32.91.82.91a.79.79,0,0,0,.82-.91v-1.82h.68Z"
    transform="translate(-13.14 -125.03)" />
  <path class="hawe-2"
    d="M65.19,171.53a.79.79,0,0,0-.82-.91c-.5,0-.82.31-.82.91v1.83h-.68v-3.27h.68v.37a1.34,1.34,0,0,1,2.31,1v1.93h-.67Z"
    transform="translate(-13.14 -125.03)" />
  <path class="hawe-2"
    d="M68.21,170a1.5,1.5,0,0,1,1.13.51V169H70v4.39h-.68v-.5a1.35,1.35,0,0,1-1.13.55,1.58,1.58,0,0,1-1.54-1.7A1.55,1.55,0,0,1,68.21,170Zm.14.58a1,1,0,0,0-1,1.09,1,1,0,0,0,1,1.11,1.11,1.11,0,0,0,0-2.2Z"
    transform="translate(-13.14 -125.03)" />
  <path class="hawe-2"
    d="M72.47,169.24h.72l.85,3.35.93-3.35h.76l.86,3.33.85-3.33h.73L77,173.36h-.77l-.86-3.12-.92,3.12h-.76Z"
    transform="translate(-13.14 -125.03)" />
  <path class="hawe-2"
    d="M78.81,169.23a.43.43,0,1,1,.86,0,.42.42,0,0,1-.42.43A.43.43,0,0,1,78.81,169.23Zm.09.86h.68v3.27H78.9Z"
    transform="translate(-13.14 -125.03)" />
  <path class="hawe-2" d="M81.32,173.36h-.68v-3.27h.68v.48a1.05,1.05,0,0,1,1-.53v.7h-.18c-.49,0-.8.2-.8.9Z"
    transform="translate(-13.14 -125.03)" />
  <path class="hawe-2"
    d="M83.2,170.64h-.38v-.55h.38v-.81h.68v.81h.8v.55h-.8v1.81c0,.24.1.34.38.34h.42v.57h-.54c-.58,0-.94-.25-.94-.91Z"
    transform="translate(-13.14 -125.03)" />
  <path class="hawe-2"
    d="M86.66,173.41a1.23,1.23,0,0,1-1.36-1.06H86a.59.59,0,0,0,.65.49c.39,0,.6-.17.6-.39,0-.64-1.9-.27-1.9-1.47,0-.52.49-.94,1.26-.94a1.12,1.12,0,0,1,1.26,1.05H87.2a.55.55,0,0,0-.62-.48c-.36,0-.55.14-.55.36,0,.66,1.85.29,1.88,1.47C87.91,173,87.43,173.41,86.66,173.41Z"
    transform="translate(-13.14 -125.03)" />
  <path class="hawe-2"
    d="M90.19,170a1.42,1.42,0,0,1,1.51,1.08H91a.76.76,0,0,0-.78-.51c-.54,0-.9.4-.9,1.11s.36,1.12.9,1.12a.75.75,0,0,0,.78-.52h.73a1.48,1.48,0,0,1-1.51,1.09,1.69,1.69,0,0,1,0-3.37Z"
    transform="translate(-13.14 -125.03)" />
  <path class="hawe-2"
    d="M92.55,169h.68v1.5a1.29,1.29,0,0,1,1-.43,1.26,1.26,0,0,1,1.3,1.39v1.93h-.67v-1.83a.79.79,0,0,0-.82-.91c-.5,0-.82.31-.82.91v1.83h-.68Z"
    transform="translate(-13.14 -125.03)" />
  <path class="hawe-2"
    d="M97.89,170a1.38,1.38,0,0,1,1.13.53v-.48h.68v3.27H99v-.49a1.41,1.41,0,0,1-1.14.54,1.58,1.58,0,0,1-1.53-1.7A1.55,1.55,0,0,1,97.89,170Zm.14.58a1,1,0,0,0-1,1.09,1,1,0,0,0,1,1.11,1.11,1.11,0,0,0,0-2.2Z"
    transform="translate(-13.14 -125.03)" />
  <path class="hawe-2"
    d="M100.85,170.64h-.39v-.55h.39v-.23c0-.75.38-1.08,1.24-1.08v.57c-.42,0-.56.14-.56.51v.23h.61v.55h-.61v2.72h-.68Z"
    transform="translate(-13.14 -125.03)" />
  <path class="hawe-2"
    d="M103,170.64h-.39v-.55H103v-.81h.68v.81h.79v.55h-.79v1.81c0,.24.09.34.38.34h.41v.57H104c-.58,0-.94-.25-.94-.91Z"
    transform="translate(-13.14 -125.03)" />
  <path class="hawe-2"
    d="M106.48,173.41a1.22,1.22,0,0,1-1.36-1.06h.69a.6.6,0,0,0,.66.49c.39,0,.59-.17.59-.39,0-.64-1.89-.27-1.89-1.47,0-.52.48-.94,1.25-.94a1.13,1.13,0,0,1,1.27,1.05H107c0-.29-.24-.48-.61-.48s-.55.14-.55.36c0,.66,1.84.29,1.88,1.47C107.73,173,107.25,173.41,106.48,173.41Z"
    transform="translate(-13.14 -125.03)" />
  <path class="hawe-2"
    d="M110.45,170a1.54,1.54,0,0,1,1.53,1.67,1.57,1.57,0,0,1-1.53,1.7,1.37,1.37,0,0,1-1.14-.53v.48h-.68V169h.68v1.61A1.38,1.38,0,0,1,110.45,170Zm-.15.58a1.11,1.11,0,1,0,1,1.09A1,1,0,0,0,110.3,170.62Z"
    transform="translate(-13.14 -125.03)" />
  <path class="hawe-2"
    d="M114.23,173.41a1.59,1.59,0,0,1-1.63-1.69,1.57,1.57,0,0,1,1.63-1.68,1.52,1.52,0,0,1,1.59,1.6c0,.12,0,.22,0,.34h-2.5a.9.9,0,0,0,.93.86.78.78,0,0,0,.77-.46h.73A1.49,1.49,0,0,1,114.23,173.41Zm-.92-2h1.8a.84.84,0,0,0-.91-.82A.88.88,0,0,0,113.31,171.43Z"
    transform="translate(-13.14 -125.03)" />
  <path class="hawe-2" d="M117.34,173.36h-.68v-3.27h.68v.48a1,1,0,0,1,1-.53v.7h-.17c-.5,0-.8.2-.8.9Z"
    transform="translate(-13.14 -125.03)" />
  <path class="hawe-2"
    d="M120.43,170a1.38,1.38,0,0,1,1.13.53v-.48h.68v3.27h-.68v-.49a1.41,1.41,0,0,1-1.14.54,1.58,1.58,0,0,1-1.53-1.7A1.55,1.55,0,0,1,120.43,170Zm.14.58a1,1,0,0,0-1,1.09,1,1,0,0,0,1,1.11,1.11,1.11,0,0,0,0-2.2Z"
    transform="translate(-13.14 -125.03)" />
  <path class="hawe-2"
    d="M123.41,170.64H123v-.55h.38v-.81h.69v.81h.79v.55h-.79v1.81c0,.24.09.34.37.34h.42v.57h-.53c-.58,0-1-.25-1-.91Z"
    transform="translate(-13.14 -125.03)" />
  <path class="hawe-2"
    d="M128.64,173.36H128V173a1.21,1.21,0,0,1-1,.44,1.27,1.27,0,0,1-1.34-1.39v-1.92h.67v1.82c0,.6.32.91.82.91a.79.79,0,0,0,.82-.91v-1.82h.67Z"
    transform="translate(-13.14 -125.03)" />
  <path class="hawe-2"
    d="M132,171.53a.79.79,0,0,0-.82-.91c-.5,0-.82.31-.82.91v1.83h-.68v-3.27h.68v.37a1.34,1.34,0,0,1,2.31,1v1.93H132Z"
    transform="translate(-13.14 -125.03)" />
  <path class="hawe-2"
    d="M135.05,170a1.38,1.38,0,0,1,1.13.53v-.48h.68v3.32a1.48,1.48,0,0,1-1.59,1.56,1.43,1.43,0,0,1-1.6-1.16h.67a.91.91,0,0,0,.93.57.87.87,0,0,0,.91-1v-.55a1.41,1.41,0,0,1-1.13.55,1.58,1.58,0,0,1-1.54-1.7A1.55,1.55,0,0,1,135.05,170Zm.14.58a1,1,0,0,0-1,1.09,1,1,0,0,0,1,1.11,1.11,1.11,0,0,0,0-2.2Z"
    transform="translate(-13.14 -125.03)" /> -->
</svg>