<svg version="1.1" viewBox="0 0 740.82 203.93" id="svg22" width="100%" height="100%"
  xmlns:xlink="http://www.w3.org/1999/xlink" xmlns="http://www.w3.org/2000/svg" xmlns:svg="http://www.w3.org/2000/svg">
  <defs id="defs6">
    <style id="style1">
      .cls-1 {
        font-family: CambayDevanagari-Regular, 'Cambay Devanagari';
        font-size: 83.8px;
      }

      .cls-1,
      .cls-2 {
        fill: currentColor;
      }

      .cls-3 {
        fill: url(#linear-gradient);
      }

      .cls-3,
      .cls-4,
      .cls-5,
      .cls-2,
      .cls-6,
      .cls-7,
      .cls-8,
      .cls-9,
      .cls-10,
      .cls-11,
      .cls-12 {
        stroke-width: 0px;
      }

      .cls-4 {
        fill: url(#radial-gradient);
      }

      .cls-5 {
        fill: url(#radial-gradient-2);
        mix-blend-mode: overlay;
      }

      .cls-6 {
        fill: url(#linear-gradient-4);
      }

      .cls-7 {
        fill: url(#linear-gradient-2);
      }

      .cls-8 {
        fill: url(#linear-gradient-3);
      }

      .cls-9 {
        fill: url(#linear-gradient-8);
      }

      .cls-10 {
        fill: url(#linear-gradient-7);
      }

      .cls-11 {
        fill: url(#linear-gradient-5);
      }

      .cls-12 {
        fill: url(#linear-gradient-6);
      }

      .cls-13 {
        isolation: isolate;
      }
    </style>
    <radialGradient id="radial-gradient" cx="270.3" cy="101.5" fx="270.3" fy="101.5" r="25.7"
      gradientTransform="rotate(75.4,275.11,111.54)" gradientUnits="userSpaceOnUse">
      <stop offset="0" stop-color="#fdc731" id="stop1" />
      <stop offset=".8" stop-color="#f39221" id="stop2" />
    </radialGradient>
    <radialGradient id="radial-gradient-2" cx="292.8" cy="140.1" fx="292.8" fy="140.1" r="40.3"
      gradientUnits="userSpaceOnUse">
      <stop offset="0" stop-color="#fff" id="stop3" />
      <stop offset="1" stop-color="#fff" stop-opacity="0" id="stop4" />
    </radialGradient>
    <linearGradient id="linear-gradient" x1="115.4" y1="190" x2="100.6" y2="209.5" gradientUnits="userSpaceOnUse">
      <stop offset="0" stop-color="#0083bf" id="stop5" />
      <stop offset="1" stop-color="#1f376a" id="stop6" />
    </linearGradient>
    <linearGradient id="linear-gradient-2" x1="103" y1="143.6" x2="60.4" y2="199.7" xlink:href="#linear-gradient" />
    <linearGradient id="linear-gradient-3" x1="76" y1="276.1" x2="76" y2="221.3" xlink:href="#linear-gradient" />
    <linearGradient id="linear-gradient-4" x1="204.9" y1="239.4" x2="285.2" y2="239.4" xlink:href="#linear-gradient" />
    <linearGradient id="linear-gradient-5" x1="113.2" y1="210.9" x2="156.3" y2="210.9" xlink:href="#linear-gradient" />
    <linearGradient id="linear-gradient-6" x1="160.4" y1="152.9" x2="245.7" y2="152.9" xlink:href="#linear-gradient" />
    <linearGradient id="linear-gradient-7" x1="124.2" y1="217.1" x2="231.9" y2="217.1" xlink:href="#linear-gradient" />
    <linearGradient id="linear-gradient-8" x1="124.5" y1="152.5" x2="177.8" y2="152.5" xlink:href="#linear-gradient" />
    <linearGradient xlink:href="#linear-gradient" id="linearGradient22" gradientUnits="userSpaceOnUse" x1="115.4"
      y1="190" x2="100.6" y2="209.5" />
  </defs>
  <g class="cls-13" id="g22" transform="translate(-59.7,-89.041)">
    <g id="Layer_1" data-name="Layer 1">
      <g id="g21">
        <g id="g11">
          <polygon class="cls-2" points="284.5,226 263.1,205.5 263.1,145.5 284.5,145.5 " id="polygon6" />
          <path class="cls-2"
            d="m 303.6,145.5 h 21.9 V 226 h -21.9 z m 74.4,9.3 c 2.7,3.3 4.6,7.5 5.8,12.6 1.2,5 1.8,11.3 1.8,18.7 V 226 h -21.9 v -40 c 0,-3 0,-5.9 -0.2,-8.6 -0.2,-2.7 -0.7,-5.2 -1.7,-7.3 -1,-2.1 -2.5,-3.7 -4.7,-4.9 -2.1,-1.2 -5.2,-1.8 -9.2,-1.8 -4,0 -7.2,0.8 -10.5,2.4 v 0.2 l -0.2,-0.2 -7.9,-13.9 0.2,-0.2 c 5.6,-5 12.6,-7.5 20.9,-7.5 12.9,0 22.1,3.5 27.5,10.6 z"
            id="path6" />
          <path class="cls-2"
            d="m 443.6,178.2 c 3.5,1.2 6.8,2.4 9.7,3.6 3,1.2 5.5,2.7 7.7,4.4 2.2,1.7 3.9,3.8 5.2,6.2 1.2,2.4 1.9,5.3 1.9,8.6 v 0.2 c 0,8.2 -2.7,14.5 -8.1,19.2 -5.4,4.6 -13,6.9 -22.8,6.9 -9.8,0 -12.1,-1.1 -18,-3.2 -5.9,-2.1 -11.4,-5.1 -16.6,-9 l -0.2,-0.2 0.2,-0.2 11,-17.3 0.2,0.2 c 3.2,3.4 6.9,6 11,7.8 4.1,1.8 8.4,2.7 13,2.7 4.6,0 9.5,-2 9.5,-6.1 0,-4.1 -1,-3.4 -3.1,-4.3 -2,-1 -4.5,-1.9 -7.2,-2.7 -0.5,-0.2 -1,-0.3 -1.5,-0.4 -0.5,0 -1,-0.2 -1.5,-0.4 -3.2,-0.9 -6.4,-1.8 -9.7,-2.8 -3.2,-1 -6.1,-2.4 -8.7,-4.2 -2.6,-1.8 -4.7,-4 -6.4,-6.7 -1.7,-2.7 -2.5,-6.2 -2.5,-10.5 v -0.3 c 0,-3.7 0.7,-7.2 2.1,-10.3 1.4,-3.1 3.4,-5.8 6,-8 2.6,-2.3 5.7,-4 9.3,-5.2 3.6,-1.2 7.7,-1.8 12.1,-1.8 4.4,0 10.4,0.8 15.6,2.3 5.3,1.6 10.1,3.8 14.7,6.8 v 0.3 l -9.8,17.9 -0.2,-0.2 c -2.5,-2.5 -5.5,-4.4 -9.2,-5.9 -3.7,-1.4 -7.5,-2.2 -11.6,-2.2 -4.1,0 -1.6,0 -2.6,0.2 -1,0.1 -1.9,0.4 -2.7,0.8 -0.8,0.4 -1.5,1 -2,1.7 -0.5,0.7 -0.8,1.7 -0.8,3 0,1.3 0.4,1.9 1.3,2.7 0.9,0.8 2,1.6 3.3,2.3 1.3,0.7 2.8,1.4 4.5,2 1.7,0.6 3.3,1.2 4.9,1.8 0.3,0 0.7,0 1,0.2 0.4,0.1 0.7,0.2 1,0.3 z"
            id="path7" />
          <path class="cls-2" d="M 485.6,113.3 H 507 v 18.8 h -21.4 z m 0,112.7 V 145.5 H 507 V 226 Z" id="path8" />
          <path class="cls-2"
            d="M 612.8,113.3 V 226 h -21.6 l 0.2,-40.4 c 0,-3 -0.6,-5.8 -1.9,-8.5 -1.2,-2.7 -2.8,-5 -4.8,-7 -2,-2 -4.3,-3.5 -7.1,-4.7 -2.7,-1.1 -5.7,-1.7 -8.8,-1.7 -3.1,0 -6,0.6 -8.7,1.7 -2.7,1.1 -5,2.7 -7,4.8 -2,2 -3.6,4.4 -4.8,7.1 -1.2,2.7 -1.8,5.6 -1.8,8.7 0,3.1 0.6,6 1.8,8.7 1.2,2.7 2.8,5 4.8,7 2,2 4.3,3.6 7,4.8 2.7,1.2 5.6,1.8 8.7,1.8 3.1,0 3,-0.1 4.5,-0.3 1.5,-0.2 2.9,-0.6 4.2,-1.3 h 0.3 l 7.9,14.5 -0.2,0.2 c -5.3,4.1 -11.7,6.1 -19.3,6.1 -7.6,0 -11.2,-1.1 -16.3,-3.2 -5,-2.1 -9.4,-5.1 -13.2,-8.9 -3.8,-3.8 -6.7,-8.2 -8.9,-13.2 -2.2,-5 -3.3,-10.4 -3.3,-16.1 0,-5.7 1.1,-11.1 3.3,-16.1 2.2,-5 5.2,-9.4 8.9,-13.2 3.8,-3.8 8.2,-6.7 13.2,-8.9 5,-2.1 10.5,-3.2 16.3,-3.2 10.9,0 19.3,4.1 25.1,12.2 v -43.5 h 21.4 z"
            id="path9" />
          <path class="cls-2"
            d="m 672.1,144.2 c 5.7,0 11.1,1.1 16.1,3.3 5,2.2 9.4,5.2 13.2,8.9 3.8,3.8 6.7,8.2 8.9,13.2 2.2,5 3.3,10.5 3.3,16.3 0,5.8 -0.3,6.1 -1,9 l -0.2,0.3 h -40.9 l -10.3,-16.4 h 30.6 c -1.5,-4.5 -4,-8.2 -7.5,-11.1 -3.5,-2.9 -7.6,-4.3 -12.3,-4.3 -4.7,0 -5.6,0.6 -8.2,1.8 -2.6,1.2 -4.8,2.8 -6.7,4.7 -1.9,2 -3.4,4.3 -4.4,7.1 -1.1,2.7 -1.6,5.7 -1.6,8.9 0,3.2 0.5,5 1.4,7.6 1,2.6 2.4,5 4.2,7.1 1.8,2.1 4,3.9 6.6,5.4 2.6,1.4 5.5,2.2 8.7,2.2 3.2,0 5.6,-0.4 8,-1.2 2.4,-0.8 4.7,-2.6 6.8,-5.4 l 0.2,-0.2 0.3,0.2 18.7,8.2 -0.3,0.3 c -3.9,5.4 -8.8,9.6 -14.7,12.7 -6,3 -12.3,4.5 -18.9,4.5 -6.6,0 -11.2,-1.1 -16.3,-3.2 -5.1,-2.1 -9.5,-5.1 -13.3,-8.9 -3.8,-3.8 -6.7,-8.2 -8.9,-13.2 -2.2,-5 -3.3,-10.4 -3.3,-16.1 0,-5.7 1.1,-11.2 3.3,-16.3 2.2,-5 5.2,-9.4 8.9,-13.2 3.8,-3.8 8.2,-6.7 13.3,-8.9 5.1,-2.2 10.5,-3.3 16.3,-3.3 z"
            id="path10" />
          <path class="cls-2"
            d="m 796.9,148.7 -1.9,3.2 -8.2,14.7 -0.2,-0.2 c -3.5,-2 -7.4,-3.1 -11.4,-3.1 -4,0 -5.4,0.5 -7.9,1.4 -2.5,0.9 -4.7,2.2 -6.6,3.9 -1.9,1.7 -3.6,3.6 -4.9,5.9 -1.3,2.3 -2.2,4.7 -2.7,7.2 V 226 h -21.9 v -80.5 h 21.9 V 156 c 5.7,-7.8 14,-11.8 25,-11.8 11,0 12.7,1.5 18.7,4.5 h 0.2 z"
            id="path11" />
        </g>
        <g id="g12">
          <circle class="cls-4" cx="275.1" cy="111.3" r="22.3" transform="rotate(-75.4,275.15,111.29)" id="circle11"
            style="fill:url(#radial-gradient)" />
          <path class="cls-5"
            d="m 297.4,111.3 c 0,12.3 -10,22.3 -22.3,22.3 -12.3,0 -22.3,-10 -22.3,-22.3 0,-1.1 0,-2.2 0.2,-3.3 4,3.6 9.3,5.9 15.1,5.9 11.2,0 20.5,-8.2 22.1,-19 4.4,4.1 7.2,9.9 7.2,16.4 z"
            id="path12" style="fill:url(#radial-gradient-2)" />
        </g>
        <path
          d="m 521.04,276.05 q -7.49,0 -11.62,-4.3 -4.04,-4.29 -4.04,-12.04 0,-7.24 4.21,-12.46 4.21,-4.72 12.55,-4.72 4.12,0 8.25,1.77 l -1.35,4.04 q -2.95,-1.26 -6.65,-1.26 -5.73,0 -8.59,3.03 -2.86,2.95 -2.86,8.59 0,7.24 3.45,10.02 3.45,2.78 8.5,2.78 3.2,0 6.15,-1.09 l 1.26,3.79 q -4.88,1.85 -9.26,1.85 z m 30.4,0 q -7.33,0 -11.45,-4.55 -4.04,-4.55 -4.04,-12.21 0,-7.75 4.12,-12.21 4.21,-4.55 11.62,-4.55 7.41,0 11.45,4.47 4.05,4.46 4.05,12.21 0,7.58 -4.21,12.21 -4.21,4.63 -11.54,4.63 z m 0.25,-29.22 q -4.8,0 -7.49,3.54 -2.61,3.53 -2.61,8.92 0,5.39 2.61,8.84 2.69,3.45 7.49,3.45 4.72,0 7.33,-3.45 2.61,-3.53 2.61,-8.84 0,-5.39 -2.7,-8.92 -2.61,-3.54 -7.24,-3.54 z m 44.8,7.91 q 0,-4.12 -1.6,-5.89 -1.52,-1.77 -5.39,-1.77 -4.13,0 -8.92,2.27 v 25.94 h -5.48 v -32.33 h 3.79 l 1.18,2.69 q 5.81,-3.2 11.37,-3.2 5.13,0 7.83,2.95 2.69,2.86 2.69,8 v 21.89 h -5.47 z m 24.76,16.68 q 2.94,0 4.96,-1.1 2.11,-1.18 2.11,-3.37 0,-1.76 -1.52,-2.78 -1.51,-1.01 -6.4,-3.03 l -3.2,-1.26 q -2.1,-1.01 -3.45,-1.77 -1.35,-0.84 -2.44,-2.44 -1.09,-1.68 -1.09,-4.21 0,-4.55 3.7,-6.74 3.79,-2.19 9.26,-2.19 4.63,0 9.27,2.11 l -1.35,4.04 q -3.79,-1.6 -7.33,-1.6 -3.62,0 -5.89,1.1 -2.19,1.01 -2.19,2.94 0,1.94 1.51,3.03 1.6,1.1 5.39,2.53 l 2.78,1.1 q 4.63,1.93 6.49,4.04 1.85,2.1 1.85,5.55 0,3.54 -3.29,6.15 -3.28,2.53 -8.75,2.53 -6.23,0 -12.3,-2.44 l 1.52,-4.13 q 5.47,1.94 10.36,1.94 z m 26.44,-7.67 q 0,4.13 1.6,5.9 1.6,1.77 5.47,1.77 3.96,0 8.84,-2.28 v -26.18 h 5.47 v 32.33 h -3.78 l -1.18,-2.36 q -6.15,3.2 -11.37,3.2 -5.05,0 -7.83,-2.95 -2.7,-2.94 -2.7,-8.08 v -22.14 h 5.48 z m 40.33,7.25 q 1.26,0 2.86,-0.51 l 1.01,3.96 q -0.25,0.1 -2.02,0.84 -1.77,0.76 -4.54,0.76 -3.12,0 -4.97,-2.11 -1.85,-2.19 -1.94,-5.64 v -37.89 h 5.31 v 35.95 q 0,2.28 0.75,3.46 0.76,1.18 3.54,1.18 z m 20.04,4.96 q -4.88,0 -6.99,-2.61 -2.02,-2.69 -2.02,-8.08 V 247.5 h -5.47 v -4.54 h 5.47 v -7.92 l 5.47,-0.42 v 8.34 h 10.61 v 4.54 h -10.61 v 17.43 q 0,3.37 1.02,4.89 1.09,1.51 4.12,1.51 2.86,0 5.14,-0.5 l 0.92,3.7 q -3.78,1.43 -7.66,1.43 z m 16.84,-39.24 q -1.51,0 -2.52,-1.01 -1.01,-1.09 -1.01,-2.52 0,-1.35 1.01,-2.36 1.01,-1.09 2.52,-1.09 1.43,0 2.44,1.09 1.02,1.01 1.02,2.36 0,1.43 -1.02,2.52 -0.92,1.01 -2.44,1.01 z m 2.7,38.57 h -5.48 v -32.33 h 5.48 z m 30.98,-20.55 q 0,-4.12 -1.6,-5.89 -1.51,-1.77 -5.38,-1.77 -4.13,0 -8.93,2.27 v 25.94 h -5.47 v -32.33 h 3.79 l 1.17,2.69 q 5.81,-3.2 11.37,-3.2 5.14,0 7.83,2.95 2.7,2.86 2.7,8 v 21.89 h -5.48 z m 36.38,19.03 q -4.21,2.19 -8.5,2.19 -7.75,0 -11.88,-5.97 -2.94,-4.38 -2.94,-10.28 0,-5.98 2.52,-10.1 2.61,-4.21 7.16,-6.07 2.11,-1.01 5.47,-1.01 3.96,0 7.58,1.69 l 1.6,0.76 0.59,-2.02 h 3.96 v 33.85 q 0,4.46 -1.01,7.15 -1.01,2.7 -3.45,4.97 -2.02,1.94 -5.06,2.95 -2.94,1.09 -6.65,1.09 -2.36,0 -5.14,-0.59 -2.69,-0.59 -4.71,-1.51 l 1.43,-3.88 q 4.8,1.69 7.66,1.69 5.06,0 7.92,-2.44 2.86,-2.45 3.37,-6.91 0.1,-0.92 0.1,-4.71 z m -7.24,-2.27 q 4.21,0 7.24,-1.77 V 248.6 q -3.79,-1.69 -7.49,-1.69 -5.06,0 -7.67,3.29 -2.61,3.28 -2.61,8.75 0,3.96 1.52,6.99 1.52,3.03 4.13,4.38 2.1,1.18 4.88,1.18 z"
          id="text12"
          style="font-size:67.3641px;font-family:Cambay;-inkscape-font-specification:'Cambay, Normal';stroke-width:0.803868"
          class="cls-1" aria-label="consulting" />
        <g id="g20">
          <path class="cls-3"
            d="m 101.6,183.6 c 8,0 18.1,8.1 18.1,17.9 v 12.7 c 0,0.7 -0.7,1.4 -1.6,1.4 h -2.4 c -6.7,0 -18.4,-5.1 -18.8,-14.2 v -17 c 0,-0.5 0.3,-0.8 0.7,-0.8 z"
            id="path13" style="fill:url(#linearGradient22)" />
          <path class="cls-7"
            d="m 104.4,215.5 c 0,0 0,0.1 -0.1,0.1 H 91.9 c -17.4,0 -31.5,-14.1 -31.8,-31.4 0,-0.2 0,-0.4 0,-0.6 v -56.8 c 0,-1.2 0.9,-2.1 2.1,-2.1 H 71 c 11.7,0 21.2,9.5 21.2,21.2 v 53.6 c 0,0.6 0,1.3 0.1,1.9 0.4,7.3 5,12.8 12,14 0,0 0.1,0 0.1,0.1 z"
            id="path14" style="fill:url(#linear-gradient-2)" />
          <path class="cls-8"
            d="m 92.3,221.1 v 51.6 c 0,0.9 -0.8,1.7 -1.7,1.7 h -9.3 c -11.7,0 -21.2,-9.5 -21.2,-21.2 l -0.4,-54.4 c 0,-0.2 0.1,-0.4 0.3,-0.4 0.2,0 0.3,0.1 0.4,0.3 v 0 c 3,12 15.2,21.3 30.9,21.5 v 0 c 0,0 0.1,0 0.2,0 0.4,0 0.7,0.4 0.7,0.8 z"
            id="path15" style="fill:url(#linear-gradient-3)" />
          <path class="cls-6"
            d="m 285.2,265.4 v 0 c 0,0 -60.6,-60.6 -60.6,-60.6 -0.5,-0.5 -1.4,-0.5 -1.9,0.1 l -17.6,22.5 c -0.4,0.5 -0.4,1.2 0.1,1.7 l 36.3,36.3 c 12.1,12.1 31.6,12.1 43.7,0 z"
            id="path16" style="fill:url(#linear-gradient-4)" />
          <path class="cls-11"
            d="m 156.3,215.5 v 5.8 c 0,2.1 -0.7,3.8 -2.1,6 0,0.1 -0.2,0.3 -0.3,0.4 -0.7,0.9 -1.1,1.5 -1.5,1.9 0,0.1 -0.1,0.2 -0.2,0.3 l -1.4,1.6 c 0,0 -5.7,6.8 -12.9,6.8 -7.2,0 -10.3,-3.6 -12.4,-5.6 -0.9,-0.9 -1.3,-2 -1.3,-3.2 v -19.9 0 -9.9 c 0,-7 -4.5,-12.9 -10.7,-15.2 0,0 0,0 0,0 -0.2,0 -0.3,-0.2 -0.3,-0.4 0,-0.3 0.2,-0.5 0.5,-0.5 h 10.7 c 0.8,0 1.5,0 2.3,0 16.6,1.2 29.6,15 29.6,31.8 z"
            id="path17" style="fill:url(#linear-gradient-5)" />
          <path class="cls-12"
            d="m 239.7,174.8 -4.6,6 c -0.3,0.4 -1,0.1 -0.9,-0.4 0.4,-1.5 0.6,-3.2 0.6,-4.9 0,-10.7 -4.5,-18.7 -19.3,-18.7 -14.8,0 -0.7,0 -1.1,0 0,0 -39,0 -53.5,0 -0.3,0 -0.5,-0.2 -0.5,-0.5 0.3,-18.5 17.8,-31.5 33.4,-31.5 h 19.3 c 14.6,0 24,6.8 28.5,16.7 0,0 0,0 0,0 5.8,11.1 5.6,23.4 -1.9,33.3 z"
            id="path18" style="fill:url(#linear-gradient-6)" />
          <path class="cls-10"
            d="m 229.9,187 -0.8,1.4 c 0,0 0,0 0,0 L 169,267.3 c 0,0 0,0 0,0 -7.9,7.9 -20,7 -20,7 -13,0 -23.7,-10.6 -24.6,-23.4 0,0 0,-0.2 0,-0.2 0,-0.3 0,-0.8 0,-1.3 0,-2.8 0,-7.8 0,-10.3 0,-2.5 0.7,-1 1.2,-0.6 3.9,2.9 16.8,10.4 30,-5.2 q 0,0 0,0 c 0,0 0,0 0,0 0,0 8.6,-11.3 42.5,-55.9 3.9,-5.1 8.9,-11.4 13.6,-17.6 h 0.4 c 16.1,0 18.4,7.4 19.7,15.4 0.6,3.9 0.4,7.6 -1.8,11.7 z"
            id="path19" style="fill:url(#linear-gradient-7)" />
          <path class="cls-9"
            d="m 177.8,125.5 c 0,0.3 -0.2,0.6 -0.4,0.7 0,0 -0.1,0 -0.2,0 -11.8,3.9 -21.3,14.9 -21.3,30 0,15.1 0,19.2 -0.1,23.3 0,0.5 -0.4,0.8 -0.8,0.8 h -3.9 c -13.9,0 -25.3,-10.6 -26.5,-24.2 0,-0.2 0,-0.5 0,-0.8 v -13.7 c 0,-9.3 7.5,-16.9 16.9,-16.9 h 35.6 c 0.4,0 0.7,0.3 0.7,0.8 z"
            id="path20" style="fill:url(#linear-gradient-8)" />
        </g>
      </g>
    </g>
  </g>
</svg>