<svg id="Layer_2" data-name="Layer 2" xmlns="http://www.w3.org/2000/svg" viewBox="0 0 828.33 159.85">
  <defs>
    <style>
      .lehne-1 {
        fill: #bfbfc1;
      }

      .lehne-1,
      .lehne-2 {
        stroke-width: 0px;
      }

      .lehne-2 {
        fill: #0062a1;
      }
    </style>
  </defs>
  <g id="Layer_1-2" data-name="Layer 1">
    <g>
      <polygon class="lehne-1"
        points="564.68 0 828.33 0 828.33 147.59 564.68 147.59 564.68 128.61 810.48 128.61 810.48 19.2 564.68 19.2 564.68 0" />
      <g>
        <path class="lehne-2"
          d="M0,147.59V0h564.68v147.59H0ZM344.78,17.56v111.49c6.09,1.43,18.8,1.15,22.86-.52V63.86c.26-.08.52-.16.79-.25,14.6,22.03,29.2,44.07,43.62,65.83h20.64V17.76h-23.11v65.05c-8.05-10.77-15.24-21.69-22.48-32.58-7.32-11.01-14.69-21.99-21.82-32.67h-20.5ZM253.14,17.29c-6.7,0-12.5-.02-18.29.01-1.46,0-2.92.18-4.26.27-1.65,5.36-1.45,107.89.11,111.74h22.86v-45.6h37.24v45.73h23.09V17.74h-23.13v44.8h-37.62V17.29ZM459.61,129.49h75.57v-20.45h-52.37v-25.75h44.73v-20.49h-44.64v-25.27h52.22v-19.94h-75.5v111.9ZM203.74,37.79v-20.17h-75.55v111.84h75.53v-20.55h-52.4v-25.59h44.72v-20.56h-44.69v-24.98h52.39ZM29.55,17.61v111.81h74.42v-20.52h-51.41V17.61h-23.01Z" />
        <path class="lehne-2"
          d="M768.34,55.27c.33-2.29.59-4.06.91-6.25h18.03c.11,1.8.3,3.41.31,5.02,0,24.37-.27,48.75.08,73.11.21,14.3-9.26,27.1-23.53,30.74-12.78,3.27-25.38,2.84-37.03-4.36-1.66-1.03-3.12-2.37-4.76-3.64,4.22-3.96,8.16-7.66,12.44-11.68,7.92,5.51,17.31,8.06,26.56,1.9,7.62-5.07,7.16-13.44,6.37-22.02-1.13.53-1.91.75-2.51,1.2-18.35,13.69-41.88,4.75-44.58-17.73-1.33-11.05-.62-22.53.68-33.64,1.42-12.11,11.36-19.65,23.55-20.27,8.18-.41,15.55,1.02,21.58,6.95.3.29.86.32,1.88.67ZM768.42,86.35c-.46-3.58-.73-7.21-1.42-10.75-1.31-6.73-5.51-10.36-11.86-10.59-8.35-.3-13.33,2.35-14.34,9.74-1.04,7.57-.94,15.47-.05,23.08.82,6.98,6.3,10.65,13.01,10.5,7.01-.15,11.89-4.13,13.25-11.11.69-3.55.95-7.18,1.41-10.88Z" />
        <path class="lehne-2"
          d="M630.64,48.86h18.49c.31,1.98.6,3.87,1.04,6.63,1.8-1.21,3.22-2.14,4.62-3.1,14.33-9.83,35.28-4.55,41.55,10.62,1.18,2.85,2.11,6.05,2.15,9.1.23,17.9.17,35.79.18,53.69,0,.79-.23,1.58-.41,2.69h-18.82c-.09-1.94-.24-3.71-.24-5.48-.02-14.25.02-28.51-.03-42.76-.02-5.38-1.46-10.23-6.35-13.26-10.05-6.23-22.04.01-22.23,11.75-.24,14.75-.07,29.5-.1,44.25,0,1.77-.18,3.54-.29,5.56h-19.55V48.86Z" />
        <path class="lehne-2" d="M587.76,48.9h18.65v79.5h-18.65V48.9Z" />
        <path class="lehne-2" d="M606.47,19.2v17.69h-18.83v-17.69h18.83Z" />
        <path class="lehne-2" d="M828.33,128.61h-17.85v-17.78h17.85v17.78Z" />
      </g>
    </g>
  </g>
</svg>