<?xml version="1.0" encoding="UTF-8" standalone="no"?>
<svg
   width="1282.6"
   height="200.52"
   viewBox="-2 -2 307.85 48.125"
   version="1.1"
   id="svg1"
   fill="currentColor"
   sodipodi:docname="mdpronto.svg"
   inkscape:export-filename="test.svg"
   inkscape:export-xdpi="96"
   inkscape:export-ydpi="96"
   inkscape:version="1.3.2 (091e20e, 2023-11-25)"
   xmlns:inkscape="http://www.inkscape.org/namespaces/inkscape"
   xmlns:sodipodi="http://sodipodi.sourceforge.net/DTD/sodipodi-0.dtd"
   xmlns="http://www.w3.org/2000/svg"
   xmlns:svg="http://www.w3.org/2000/svg">
  <defs
     id="defs1" />
  <sodipodi:namedview
     id="namedview1"
     pagecolor="#ffffff"
     bordercolor="#000000"
     borderopacity="0.25"
     inkscape:showpageshadow="2"
     inkscape:pageopacity="0.0"
     inkscape:pagecheckerboard="0"
     inkscape:deskcolor="#d1d1d1"
     inkscape:zoom="0.5489"
     inkscape:cx="628.53"
     inkscape:cy="21.862"
     inkscape:window-width="2560"
     inkscape:window-height="1293"
     inkscape:window-x="0"
     inkscape:window-y="25"
     inkscape:window-maximized="1"
     inkscape:current-layer="svg1" />
  <path
     d="m 14.799,28.997 v 1.4 a 10.799,10.799 0 1 0 21.595,0 v -4.008 a 7.2016,7.2018 0 1 1 4.806,0 v 4.008 a 15.601,15.605 0 1 1 -31.201,0 v -1.4 A 14.399,14.399 0 0 1 -2,14.797 V 2.798 a 4.7995,4.7997 0 0 1 4.7995,-4.8 h 2.3999 a 2.4,2.4 0 1 1 0,4.8 H 2.7995 v 11.999 a 9.5995,9.5997 0 1 0 19.1985,0 V 2.798 h -2.399 a 2.4,2.4 0 1 1 0,-4.8 h 2.399 a 4.7995,4.7997 0 0 1 4.796,4.8 v 11.999 a 14.399,14.399 0 0 1 -11.995,14.2 m 23.993,-7.001 a 2.3999,2.3999 0 1 0 0,-4.799 2.3999,2.3999 0 0 0 0,4.799"
     id="path1"
     style="stroke-width:2.39981" />
  <text
     xml:space="preserve"
     style="font-weight:bold;font-size:42.0831px;font-family:sans-serif;-inkscape-font-specification:'sans-serif, Bold';stroke:#ffa500;stroke-width:1.01989;stroke-linejoin:round;stroke-opacity:0"
     x="57.444"
     y="36.937"
     id="text1"><tspan
   sodipodi:role="line"
   id="tspan1"
   style="stroke-width:1.01989"
   x="57.444"
   y="36.937">MD Pronto</tspan> </text>
</svg>
