<svg xmlns="http://www.w3.org/2000/svg" fill="url(#Ativo_5_svg__a)" data-name="Camada 2" viewBox="0 0 6661.85 800"
  class="w-48 px-4">
  <linearGradient id="Ativo_5_svg__a" x1="0" x2="0" y1="0" y2="1">
    <stop offset="0%" stop-color="#ffa65d"></stop>
    <stop offset="100%" stop-color="#bc6015"></stop>
  </linearGradient>
  <g data-name="Camada 1">
    <path
      d="M4054.28 413.43h-.01l.03.04zM434.76 428.66c-32.13-25.61-66.88-50.4-104.27-74.39-37.41-23.97-72.16-47.96-104.27-71.95-32.13-23.97-58.96-48.78-80.49-74.39-21.55-25.61-32.32-53.05-32.32-82.32 0-33.33 10.98-58.73 32.93-76.22 21.95-17.47 48.36-25.8 79.27-25h34.15l239.03 247.56-36.6-259.76H239.02c-43.9 0-81.1 5.3-111.59 15.85-30.49 10.58-55.3 24.2-74.39 40.85-19.11 16.67-32.74 35.78-40.85 57.32C4.06 147.77 0 169.51 0 191.46c0 38.22 10.76 72.77 32.32 103.66 21.53 30.91 48.36 59.36 80.49 85.37 32.11 26.03 67.07 50.82 104.88 74.39 37.81 23.59 72.75 47.56 104.88 71.95 32.11 24.39 58.94 50.42 80.49 78.05 21.53 27.65 32.32 58.54 32.32 92.68 0 24.39-11.18 43.29-33.54 56.71-22.37 13.41-54.69 20.54-96.95 21.34h-64.63L0 528.05l36.58 259.76h262.2c31.71 0 62.6-3.24 92.68-9.76 30.07-6.5 56.5-16.86 79.27-31.1 22.75-14.21 41.25-33.12 55.49-56.71 14.21-23.57 21.34-52.44 21.34-86.58s-10.79-64.43-32.32-93.29c-21.55-28.85-48.38-56.1-80.49-81.71ZM1292.95 24.39l240.24 247.56-36.58-259.76H979.53v6.1l46.35 47.56v667.08l-46.35 48.78v6.1h517.08l36.58-259.76-240.24 247.56h-120.73v-400l196.34 95.12-1.22-195.12-195.12 89.02V24.39zM2468.3 230.49l-145.13 370.73-241.46-531.71 46.34-51.22v-6.1h-232.92l353.65 775.62h13.42l303.66-775.62H2368.3zM3050.69 12.19l30.49 82.93-271.95 693.9 196.34-1.22-87.8-245.12 20.73-51.22h285.37l87.8 242.68-45.12 47.56v7.32l219.51-1.22-279.27-775.61h-156.1Zm-107.32 467.08 143.9-367.07 131.71 367.07z">
    </path>
    <path
      d="m4249.4 465.86-195.07-52.43h74.34c39.82 0 76.23-4.9 109.14-14.66 32.94-9.76 61.38-23.57 85.37-41.44 23.96-17.9 42.67-39.04 56.1-63.42 13.42-24.38 20.14-51.23 20.14-80.51s-6.71-56.29-20.14-81.09c-13.42-24.77-32.13-45.91-56.1-63.39-23.99-17.48-52.66-31.29-85.96-41.47-33.37-10.15-69.52-15.24-108.56-15.24l-275.61-1.23v7.33l45.14 47.57v667.04l-46.33 48.8v6.1h240.23v-6.1l-47.57-48.8V420.73l203.66 313.42 34.86 53.66.55.84 171.92-.84-206.09-321.95ZM4044.52 24.4c26.85 0 52.63 4.25 77.43 12.81 24.8 8.53 46.37 20.95 64.65 37.19 18.29 16.28 32.91 36.19 43.9 59.76 10.96 23.57 16.44 50 16.44 79.25s-5.48 55.51-16.44 78.66c-10.99 23.18-25.84 42.9-44.52 59.14-18.71 16.28-40.24 28.66-64.62 37.19-24.42 8.56-50 12.81-76.85 12.81V24.4Zm9.76 389.03.02.04-.03-.04ZM5408.81 115.24c-28.87-36.17-63.83-64.43-104.88-84.76-41.06-20.31-88.02-30.49-140.85-30.49s-98.78 10.18-140.24 30.49c-41.46 20.33-76.64 48.59-105.49 84.76-28.87 36.19-50.82 78.47-65.85 126.83-15.05 48.38-22.56 100.61-22.56 156.71s7.51 108.54 22.56 157.32c15.03 48.78 36.78 91.27 65.25 127.44 28.45 36.19 63.42 64.63 104.88 85.37 41.47 20.73 88.6 31.1 141.46 31.1s100-10.36 141.47-31.1c41.46-20.73 76.41-49.18 104.88-85.37 28.45-36.16 50.19-78.66 65.24-127.44 15.03-48.78 22.56-101.22 22.56-157.32s-7.53-108.33-22.56-156.71c-15.05-48.36-37-90.64-65.85-126.83Zm-71.34 397.56c-5.7 44.32-15.66 87.01-29.88 128.05-14.23 41.06-32.93 75.82-56.1 104.27-23.17 28.47-52.65 42.68-88.41 42.68s-64.23-14.21-87.8-42.68c-23.59-28.45-42.28-63.2-56.1-104.27-13.83-41.04-23.59-83.73-29.27-128.05-5.7-44.3-8.54-82.32-8.54-114.03 0-54.46 4.27-105.28 12.81-152.44 8.54-47.14 20.73-88.21 36.59-123.17 15.85-34.95 34.95-62.38 57.32-82.32 22.35-19.91 47.35-29.88 75-29.88s51.62 9.97 74.39 29.88c22.75 19.93 42.07 47.37 57.93 82.32 15.85 34.97 28.24 76.03 37.2 123.17 8.94 47.16 13.41 97.98 13.41 152.44 0 31.71-2.86 69.72-8.54 114.03ZM6512.42 12.19h-267.07l109.76 159.76-146.34 165.86-165.86-245.13 56.1-71.95v-8.54H5811.2l297.56 439.03-297.56 336.59h264.64l-107.32-159.76 147.56-167.07 167.08 246.34-56.1 71.95v9.75l285.36-1.21-296.34-439.03 296.34-336.59zM6644.2 20.68c5.53 3.24 9.86 7.7 12.97 13.36 3.12 5.66 4.67 11.99 4.67 18.98s-1.56 13.36-4.67 19.08c-3.12 5.72-7.44 10.21-12.97 13.45-5.53 3.24-11.8 4.87-18.79 4.87s-13.26-1.62-18.79-4.87c-5.53-3.24-9.86-7.73-12.97-13.45-3.12-5.72-4.67-12.08-4.67-19.08s1.56-13.32 4.67-18.98c3.12-5.66 7.44-10.11 12.97-13.36 5.53-3.24 11.8-4.87 18.79-4.87s13.26 1.62 18.79 4.87Zm-2.48 60.58c4.77-2.8 8.46-6.68 11.07-11.64 2.61-4.96 3.91-10.49 3.91-16.6s-1.31-11.61-3.91-16.5c-2.61-4.89-6.3-8.74-11.07-11.54-4.77-2.8-10.21-4.2-16.31-4.2-9.29 0-16.79 3.02-22.51 9.06-5.72 6.04-8.59 13.77-8.59 23.18 0 6.11 1.3 11.64 3.91 16.6 2.61 4.96 6.26 8.84 10.97 11.64 4.7 2.8 10.11 4.2 16.22 4.2s11.54-1.4 16.31-4.2m-3.15-28.71c-2.04 2.1-4.77 3.34-8.2 3.72l12.21 16.98-7.06.19-11.83-17.17h-5.91v17.17h-6.11V32.61h16.79c4.07 0 7.28 1.02 9.63 3.05 2.35 2.04 3.53 4.96 3.53 8.78 0 3.31-1.02 6.01-3.05 8.11Zm-20.8-1.43h10.11c5.21 0 7.82-2.22 7.82-6.68 0-2.16-.7-3.78-2.1-4.87-1.4-1.08-3.31-1.62-5.72-1.62h-10.11v13.16Z">
    </path>
  </g>
</svg>